<svg xmlns="http://www.w3.org/2000/svg" viewBox="0 0 1600 900" width="1600" height="900" preserveAspectRatio="xMidYMid slice" role="img" aria-label="Placeholder hero image">
  <defs>
    <linearGradient id="sky" x1="0" y1="0" x2="0" y2="1">
      <stop offset="0" stop-color="#4a6350"/>
      <stop offset="1" stop-color="#33474f"/>
    </linearGradient>
  </defs>
  <rect width="1600" height="900" fill="url(#sky)"/>
  <g fill="#ffffff" opacity="0.06">
    <circle cx="300" cy="220" r="120"/>
    <circle cx="1350" cy="640" r="180"/>
    <circle cx="900" cy="120" r="70"/>
  </g>
  <!-- simple Scottie silhouette -->
  <g fill="#22303a" opacity="0.55" transform="translate(600 470)">
    <path d="M40 180 L40 90 Q40 60 70 55 L120 48 Q150 20 200 26 L210 6 L230 26 L250 6 L260 30 Q300 40 300 90 L300 100 L340 100 L345 130 L300 135 L300 180 L270 180 L270 140 L120 140 L120 180 Z"/>
    <rect x="60" y="180" width="26" height="60" rx="8"/>
    <rect x="120" y="180" width="26" height="60" rx="8"/>
    <rect x="220" y="180" width="26" height="60" rx="8"/>
    <rect x="264" y="180" width="26" height="60" rx="8"/>
  </g>
  <text x="800" y="820" font-family="Georgia, serif" font-size="34" fill="#ffffff" opacity="0.5" text-anchor="middle">Hero photo coming soon: happy, freshly-groomed Scotties</text>
</svg>
