<svg xmlns="http://www.w3.org/2000/svg" viewBox="0 0 640 480" width="640" height="480" role="img" aria-label="Placeholder van image">
  <rect width="640" height="480" fill="#eaf0e6"/>
  <g fill="#5f7d5a" opacity="0.9">
    <!-- van body -->
    <rect x="120" y="180" width="260" height="130" rx="16"/>
    <path d="M380 210 h70 l60 55 v45 h-130 z"/>
    <rect x="150" y="205" width="90" height="60" rx="8" fill="#eaf0e6"/>
    <rect x="400" y="230" width="55" height="40" rx="6" fill="#eaf0e6"/>
  </g>
  <g fill="#22303a">
    <circle cx="200" cy="330" r="34"/>
    <circle cx="200" cy="330" r="14" fill="#eaf0e6"/>
    <circle cx="450" cy="330" r="34"/>
    <circle cx="450" cy="330" r="14" fill="#eaf0e6"/>
  </g>
  <g fill="#4a6446">
    <circle cx="300" cy="120" r="6"/><circle cx="315" cy="108" r="6"/><circle cx="332" cy="108" r="6"/><circle cx="347" cy="120" r="5"/>
    <path d="M324 118c9 0 16 6 18 14 2 6-3 12-9 12-3 0-6-1-9-1s-6 1-9 1c-6 0-11-6-9-12 2-8 9-14 18-14z"/>
  </g>
  <text x="320" y="410" font-family="Georgia, serif" font-size="22" fill="#4a6446" text-anchor="middle">Van / team photo coming soon</text>
</svg>
